<svg width="23" height="22" viewBox="0 0 23 22" fill="none" xmlns="http://www.w3.org/2000/svg">
<g clip-path="url(#clip0_17_198)">
<path fill-rule="evenodd" clip-rule="evenodd" d="M19.1869 1.39182C18.0642 0.0756849 16.0374 -0.0714863 14.1536 0.849385C16.1552 2.22439 17.9717 3.82645 19.5443 5.6766C20.2003 4.11659 20.1204 2.48509 19.1869 1.39182ZM16.2981 4.24273C14.9694 2.91399 13.2202 2.00994 11.2691 1.74503C10.6299 1.65672 9.96557 1.6399 9.32222 1.69457C7.19034 1.87538 5.27291 2.81727 3.84745 4.24273C2.25379 5.83639 1.26985 8.03555 1.26985 10.4702C1.26985 12.9006 2.25379 15.104 3.84745 16.6976C5.4411 18.2913 7.64026 19.2752 10.0749 19.2752C10.1001 19.2752 10.1254 19.2752 10.1506 19.2752C9.90249 18.8926 9.77214 18.4469 9.78055 17.9801C9.79317 17.3662 10.0413 16.7943 10.4786 16.3738C11.1261 15.7473 11.7737 15.1208 12.417 14.4943C13.1445 13.7878 13.8929 13.0604 14.6414 12.3414C15.0703 11.9251 15.638 11.698 16.2393 11.698C16.87 11.698 17.4587 11.9461 17.896 12.4002C18.1483 12.6609 18.3249 12.9637 18.4258 13.2833C18.7244 12.4002 18.8841 11.4541 18.8841 10.4702C18.8757 8.03555 17.8918 5.83639 16.2981 4.24273ZM14.0864 11.1724L11.3616 11.2186C11.1009 11.6602 10.6215 11.9587 10.0707 11.9587C9.24653 11.9587 8.57795 11.2901 8.57795 10.466C8.57795 9.89831 8.89752 9.40214 9.36427 9.14984V5.11735C9.36427 4.7263 9.67963 4.41093 10.0707 4.41093C10.4617 4.41093 10.7771 4.7263 10.7771 5.11735V9.14984C11.0504 9.29702 11.2691 9.52408 11.4078 9.8016L14.0569 9.75535C14.448 9.74694 14.7676 10.0581 14.776 10.4492C14.7886 10.8444 14.4774 11.164 14.0864 11.1724ZM0.9713 1.36238C0.0167894 2.47668 -0.0631036 4.14182 0.605474 5.73127C2.20754 3.84327 4.0619 2.21177 6.10127 0.811541C4.17963 -0.130355 2.11083 0.0210214 0.9713 1.36238Z" fill="#012D6D"/>
<path fill-rule="evenodd" clip-rule="evenodd" d="M15.5665 18.758C16.2519 18.0937 17.3452 18.1147 18.0096 18.8001C18.1904 18.9851 18.3207 19.2038 18.4006 19.435L15.0577 20.2382C14.9821 19.7083 15.1545 19.1533 15.5665 18.758ZM15.0493 12.7661C15.7221 12.1143 16.807 12.1353 17.4587 12.8081C18.1105 13.4809 18.0895 14.5658 17.4167 15.2175C16.0249 16.5631 14.6373 17.8918 13.2454 19.2374C12.909 19.5612 12.4717 19.7167 12.0386 19.7125C11.6055 19.7041 11.1724 19.5317 10.8486 19.1953C10.5249 18.859 10.3693 18.4216 10.3735 17.9885C10.3819 17.5554 10.5543 17.1223 10.8907 16.7986C12.2825 15.453 13.6533 14.1158 15.0493 12.7661ZM19.5402 15.2175C20.2256 14.5531 21.3188 14.5742 21.9832 15.2596C22.164 15.4446 22.2944 15.6632 22.3743 15.8945L19.0314 16.6976C18.9557 16.1678 19.1239 15.617 19.5402 15.2175ZM22.4373 16.1636C22.5298 16.7102 22.3616 17.2863 21.9327 17.7026C21.2473 18.367 20.1541 18.346 19.4897 17.6606C19.2963 17.4587 19.1575 17.2232 19.0818 16.971L22.4373 16.1636ZM15.0872 17.198L12.9931 15.0241L11.0168 16.9331C10.7183 17.2232 10.5669 17.6059 10.5585 17.9927C10.5501 18.3796 10.6931 18.7706 10.979 19.0692C11.2691 19.3677 11.6518 19.5191 12.0386 19.5275C12.4255 19.5359 12.8165 19.393 13.1151 19.107L15.0872 17.198ZM18.4679 19.7041C18.5604 20.2508 18.3922 20.8268 17.9633 21.2431C17.2779 21.9075 16.1847 21.8865 15.5203 21.2011C15.3269 20.9992 15.1881 20.7638 15.1124 20.5115L18.4679 19.7041Z" fill="#012D6D"/>
<path fill-rule="evenodd" clip-rule="evenodd" d="M15.5665 18.758C16.2519 18.0937 17.3452 18.1147 18.0096 18.8001C18.1904 18.9851 18.3207 19.2038 18.4006 19.435L15.0577 20.2382C14.9821 19.7083 15.1545 19.1533 15.5665 18.758ZM15.0493 12.7661C15.7221 12.1143 16.807 12.1353 17.4587 12.8081C18.1105 13.4809 18.0895 14.5658 17.4167 15.2175C16.0249 16.5631 14.6373 17.8918 13.2454 19.2374C12.909 19.5612 12.4717 19.7167 12.0386 19.7125C11.6055 19.7041 11.1724 19.5317 10.8486 19.1953C10.5249 18.859 10.3693 18.4216 10.3735 17.9885C10.3819 17.5554 10.5543 17.1223 10.8907 16.7986C12.2825 15.453 13.6533 14.1158 15.0493 12.7661ZM19.5402 15.2175C20.2256 14.5531 21.3188 14.5742 21.9832 15.2596C22.164 15.4446 22.2944 15.6632 22.3743 15.8945L19.0314 16.6976C18.9557 16.1678 19.1239 15.617 19.5402 15.2175ZM22.4373 16.1636C22.5298 16.7102 22.3616 17.2863 21.9327 17.7026C21.2473 18.367 20.1541 18.346 19.4897 17.6606C19.2963 17.4587 19.1575 17.2232 19.0818 16.971L22.4373 16.1636ZM15.0872 17.198L12.9931 15.0241L11.0168 16.9331C10.7183 17.2232 10.5669 17.6059 10.5585 17.9927C10.5501 18.3796 10.6931 18.7706 10.979 19.0692C11.2691 19.3677 11.6518 19.5191 12.0386 19.5275C12.4255 19.5359 12.8165 19.393 13.1151 19.107L15.0872 17.198ZM18.4679 19.7041C18.5604 20.2508 18.3922 20.8268 17.9633 21.2431C17.2779 21.9075 16.1847 21.8865 15.5203 21.2011C15.3269 20.9992 15.1881 20.7638 15.1124 20.5115L18.4679 19.7041Z" fill="#012D6D"/>
</g>
<defs>
<clipPath id="clip0_17_198">
<rect width="22.719" height="22" fill="white"/>
</clipPath>
</defs>
</svg>
