<?xml version="1.0"?>
<svg width="20" height="20" xmlns="http://www.w3.org/2000/svg" xmlns:svg="http://www.w3.org/2000/svg">
    <defs>
        <clipPath id="clip0_17_205">
            <rect fill="white" height="20" id="svg_1" width="20"/>
        </clipPath>
    </defs>
    <g class="layer">
        <title>Layer 1</title>
        <g clip-path="url(#clip0_17_205)" id="svg_2">
            <path clip-rule="evenodd" d="m6.56,6.48c1.35,0 2.45,1.07 2.45,2.41c0,1.33 -1.1,2.41 -2.45,2.41c-1.35,0 -2.45,-1.08 -2.45,-2.41c0,-1.33 1.1,-2.41 2.45,-2.41zm-5.04,-1.61l1.14,0c0.29,0 0.53,0.25 0.53,0.52l0,6.75l5.87,0l1.48,-5.12c-0.39,-0.68 -0.61,-1.47 -0.61,-2.31c0,-2.6 2.15,-4.71 4.79,-4.71c2.65,0 4.79,2.11 4.79,4.71c0,0.78 -0.19,1.52 -0.54,2.17c0.79,0.54 1.31,1.43 1.31,2.43l0,2.93l0,0c0,0.02 0,0.03 0,0.06l0,4.7l-2.2,0l0,-2.21l-14.89,0l0,2.11l-2.2,0l0,-11.51c0,-0.28 0.23,-0.52 0.53,-0.52zm9.89,1.5l5.88,0c0.23,0 0.46,0.03 0.68,0.08c0.29,-0.51 0.45,-1.11 0.45,-1.73c0,-2.01 -1.66,-3.64 -3.7,-3.64c-2.05,0 -3.7,1.63 -3.7,3.64c-0.01,0.6 0.14,1.16 0.4,1.66zm3.23,-3.56c0.1,0 0.19,0.09 0.19,0.2l0,1.75l1.84,0c0.1,0 0.19,0.09 0.19,0.19l0,0.58c0,0.1 -0.09,0.2 -0.19,0.2l-2.82,0l0,-2.71c0,-0.11 0.1,-0.2 0.2,-0.2l0.59,0z" fill="#012D6D" fill-rule="evenodd" id="svg_3"/>
        </g>
    </g>
</svg>