<svg width="23" height="20" viewBox="0 0 23 20" fill="none" xmlns="http://www.w3.org/2000/svg">
<g clip-path="url(#clip0_17_205)">
<path fill-rule="evenodd" clip-rule="evenodd" d="M6.42902 7.61542C7.99274 7.61542 9.26077 8.88345 9.26077 10.4472C9.26077 12.0109 7.99274 13.2789 6.42902 13.2789C4.86531 13.2789 3.59728 12.0109 3.59728 10.4472C3.59728 8.88345 4.86531 7.61542 6.42902 7.61542ZM0.609524 5.73424H1.93379C2.26939 5.73424 2.54331 6.01723 2.54331 6.34376V14.2839H9.31519L11.0295 8.2576C10.5778 7.45578 10.3184 6.5288 10.3184 5.54014C10.3166 2.47982 12.7964 0 15.8585 0C18.9188 0 21.4005 2.47982 21.4005 5.54195C21.4005 6.46349 21.1755 7.33061 20.7782 8.09433C21.6907 8.71837 22.2912 9.76689 22.2912 10.946V14.4H22.2875C22.2893 14.4218 22.2912 14.4435 22.2912 14.4671V20H19.7478V17.4041H2.54331V19.8821H0V6.34376C0 6.00998 0.273923 5.73424 0.609524 5.73424ZM12.0435 7.49206H18.8372C19.1075 7.49206 19.3705 7.5229 19.6245 7.58277C19.9546 6.97506 20.1415 6.28027 20.1415 5.54014C20.1415 3.1746 18.224 1.25714 15.8585 1.25714C13.493 1.25714 11.5755 3.17642 11.5755 5.54014C11.5737 6.24399 11.7442 6.90794 12.0435 7.49206ZM15.7678 3.30159C15.8912 3.30159 15.9927 3.40317 15.9927 3.52653V5.5873H18.1152C18.2404 5.5873 18.3401 5.68889 18.3401 5.81225V6.4907C18.3401 6.61406 18.2385 6.71565 18.1152 6.71565H14.8644V3.52653C14.8644 3.40136 14.966 3.30159 15.0912 3.30159H15.7678Z" fill="#012D6D"/>
</g>
<defs>
<clipPath id="clip0_17_205">
<rect width="22.2912" height="20" fill="white"/>
</clipPath>
</defs>
</svg>
