<svg width="27" height="24" viewBox="0 0 27 24" fill="none" xmlns="http://www.w3.org/2000/svg">
<g clip-path="url(#clip0_97_96)">
<path d="M7.38387 8.7694L10.2906 8.73129C10.4308 8.72926 10.5614 8.76889 10.6721 8.83799C11.2742 9.18653 11.8428 9.58333 12.3717 10.0309C12.6694 10.2835 12.9575 10.5533 13.2349 10.8418C14.2343 9.28916 15.4216 7.71311 16.6654 6.22952C18.2862 4.2968 20.0141 2.5104 21.5541 1.12996C21.6888 1.00955 21.8574 0.950611 22.0246 0.950611L24.2713 0.947054C24.6625 0.947054 24.9801 1.2646 24.9801 1.65582C24.9801 1.85194 24.9008 2.02875 24.7723 2.15729C22.7105 4.44973 20.5959 7.07445 18.6794 9.76421C16.9052 12.2548 15.2982 14.8028 14.0595 17.1953C13.8806 17.5424 13.4539 17.6785 13.1068 17.4997C12.9674 17.4281 12.8559 17.3118 12.7903 17.1694C12.1115 15.7178 11.3027 14.3852 10.3399 13.1963C9.37807 12.0089 8.25675 10.9562 6.9515 10.0604C6.62887 9.84042 6.54605 9.39992 6.76605 9.07729C6.90933 8.86695 7.1466 8.75873 7.38387 8.7694ZM3.17802 0H16.9042C15.9317 1.00193 15.0894 1.97947 14.3653 2.9189H3.17802C3.10587 2.9189 3.04033 2.94786 2.99308 2.99308C2.94548 3.04289 2.91891 3.10912 2.9189 3.17802V20.8215C2.9189 20.8896 2.94938 20.9536 2.99714 21.0018C3.04592 21.0501 3.11044 21.0811 3.17802 21.0811H22.835C22.9005 21.0811 22.9645 21.0496 23.0138 21.0008C23.0631 20.9515 23.0946 20.887 23.0946 20.8215V10.852C24.1524 10.4145 25.1472 9.96388 26.0135 9.54066V20.8215C26.0135 21.6923 25.6523 22.489 25.0771 23.0641C24.5015 23.6398 23.7058 24 22.835 24H3.17802C2.30768 24 1.51 23.6413 0.933844 23.0651C0.359718 22.491 0 21.6964 0 20.8215V3.17802C0 2.30667 0.357686 1.51305 0.93232 0.937909L0.937909 0.93232C1.51305 0.357686 2.30667 0 3.17802 0Z" fill="#012D6D"/>
</g>
<defs>
<clipPath id="clip0_97_96">
<rect width="26.0135" height="24" fill="white"/>
</clipPath>
</defs>
</svg>
