<svg width="26" height="25" viewBox="0 0 26 25" fill="none" xmlns="http://www.w3.org/2000/svg">
<g clip-path="url(#clip0_97_128)">
<path d="M4.88391 0H20.6537C21.948 0.00330578 23.1883 0.521081 24.1035 1.44012C25.0187 2.35916 25.5343 3.6047 25.5376 4.90442V20.0956C25.5343 21.3953 25.0187 22.6408 24.1035 23.5599C23.1883 24.4789 21.948 24.9967 20.6537 25H4.88391C4.24279 24.9998 3.60803 24.8724 3.01602 24.6253C2.424 24.3782 1.88639 24.0162 1.434 23.56L1.3571 23.4765C0.487698 22.5673 0.00151243 21.3561 0 20.0956L0 4.90442C0.00329195 3.6047 0.518902 2.35916 1.4341 1.44012C2.3493 0.521081 3.58963 0.00330578 4.88391 0ZM8.52086 10.2993C8.26769 10.0217 8.13096 9.65679 8.13917 9.2805C8.14738 8.90421 8.29989 8.54563 8.56491 8.27949C8.82994 8.01335 9.18703 7.8602 9.56174 7.85195C9.93645 7.84371 10.2999 7.98101 10.5763 8.23524L12.7688 10.4349L14.9635 8.23524C15.097 8.09293 15.2577 7.979 15.4359 7.90019C15.6141 7.82138 15.8063 7.77931 16.001 7.77646C16.1957 7.77361 16.389 7.81005 16.5694 7.88362C16.7499 7.95718 16.9137 8.06637 17.0514 8.20471C17.189 8.34306 17.2976 8.50774 17.3706 8.68901C17.4437 8.87027 17.4798 9.06442 17.4768 9.25994C17.4737 9.45547 17.4316 9.6484 17.353 9.82729C17.2743 10.0062 17.1607 10.1674 17.0189 10.3014L14.8242 12.501L17.0147 14.6986C17.2637 14.9765 17.3972 15.3396 17.3877 15.7132C17.3782 16.0869 17.2264 16.4427 16.9636 16.7074C16.7008 16.9721 16.347 17.1255 15.9749 17.1362C15.6029 17.1469 15.2409 17.014 14.9635 16.7648L12.7688 14.5651L10.5783 16.7648C10.3055 17.0387 9.93545 17.1927 9.5496 17.1927C9.16374 17.1927 8.7937 17.0387 8.52086 16.7648C8.24802 16.4908 8.09474 16.1192 8.09474 15.7317C8.09474 15.3442 8.24802 14.9726 8.52086 14.6986L10.7134 12.499L8.52086 10.2993ZM20.6537 2.61291H4.88391C4.2776 2.61291 3.69612 2.85477 3.2674 3.2853C2.83868 3.71582 2.59782 4.29974 2.59782 4.90859V20.0956C2.59931 20.6775 2.82238 21.2367 3.2213 21.6587L3.27741 21.713C3.70442 22.1427 4.28354 22.3851 4.88806 22.3871H20.6537C21.26 22.3871 21.8415 22.1452 22.2702 21.7147C22.699 21.2842 22.9398 20.7003 22.9398 20.0914V4.90442C22.9398 4.29556 22.699 3.71165 22.2702 3.28112C21.8415 2.8506 21.26 2.60873 20.6537 2.60873V2.61291Z" fill="#012D6D"/>
</g>
<defs>
<clipPath id="clip0_97_128">
<rect width="25.5376" height="25" fill="white"/>
</clipPath>
</defs>
</svg>
