<svg width="17" height="20" viewBox="0 0 17 20" fill="none" xmlns="http://www.w3.org/2000/svg">
<g clip-path="url(#clip0_26_647)">
<path fill-rule="evenodd" clip-rule="evenodd" d="M1.40365 0H9.73416V5.73036C9.73416 5.94559 9.90869 6.12019 10.1238 6.12019H16.1644V18.5961C16.1644 18.9801 16.0066 19.3309 15.7525 19.5859L15.7493 19.5891C15.4944 19.8426 15.1445 20 14.7611 20H1.40365C1.01711 20 0.666098 19.8422 0.411918 19.5879C0.157739 19.3336 0 18.9824 0 18.5961V1.40388C0 1.01756 0.157739 0.666393 0.411918 0.412101C0.666098 0.157809 1.01711 0 1.40365 0ZM10.5139 0.0871077C10.5497 0.111179 10.5824 0.139656 10.6111 0.171872L15.9426 5.34013H10.5139V0.0871077ZM3.56514 16.3954C3.34962 16.3954 3.17509 16.2208 3.17509 16.0055C3.17509 15.7903 3.34962 15.6153 3.56514 15.6153H12.5992C12.8148 15.6153 12.9893 15.7903 12.9893 16.0055C12.9893 16.2208 12.8148 16.3954 12.5992 16.3954H3.56514ZM3.56514 13.413C3.34962 13.413 3.17509 13.2384 3.17509 13.0232C3.17509 12.8076 3.34962 12.633 3.56514 12.633H12.4587C12.6742 12.633 12.8487 12.8076 12.8487 13.0232C12.8487 13.2384 12.6742 13.413 12.4587 13.413H3.56514ZM3.56514 10.4307C3.34962 10.4307 3.17509 10.2561 3.17509 10.0404C3.17509 9.8252 3.34962 9.65059 3.56514 9.65059H10.7614C10.9766 9.65059 11.1515 9.8252 11.1515 10.0404C11.1515 10.2561 10.9766 10.4307 10.7614 10.4307H3.56514ZM3.56514 7.4479C3.34962 7.4479 3.17509 7.2733 3.17509 7.05807C3.17509 6.84244 3.34962 6.66784 3.56514 6.66784H7.58281C7.79834 6.66784 7.97287 6.84244 7.97287 7.05807C7.97287 7.2733 7.79834 7.4479 7.58281 7.4479H3.56514ZM3.56514 4.46554C3.34962 4.46554 3.17509 4.29093 3.17509 4.07531C3.17509 3.86008 3.34962 3.68547 3.56514 3.68547H5.72859C5.94412 3.68547 6.11865 3.86008 6.11865 4.07531C6.11865 4.29093 5.94412 4.46554 5.72859 4.46554H3.56514Z" fill="#012D6D"/>
</g>
<defs>
<clipPath id="clip0_26_647">
<rect width="16.1644" height="20" fill="white"/>
</clipPath>
</defs>
</svg>
