<svg width="17" height="20" viewBox="0 0 17 20" fill="none" xmlns="http://www.w3.org/2000/svg">
<g clip-path="url(#clip0_16_194)">
<path fill-rule="evenodd" clip-rule="evenodd" d="M2.79297 0H16.2565C16.5527 0 16.7952 0.242513 16.7952 0.538737V15.5648C16.7708 15.9847 16.2288 15.9945 15.6429 15.9684H2.5944C1.78385 15.9684 1.12142 16.6309 1.12142 17.4414C1.12142 18.252 1.78385 18.9144 2.5944 18.9144H15.6429V17.347H16.7952V19.3392C16.7952 19.7021 16.499 19.9984 16.1361 19.9984H2.65137C1.19303 20 0 18.807 0 17.3486V2.79297C0 1.25651 1.25651 0 2.79297 0ZM8.87533 2.28678C12.1387 2.28678 14.7835 4.93164 14.7835 8.19499C14.7835 11.4583 12.1387 14.1032 8.87533 14.1032C5.61198 14.1032 2.96712 11.4583 2.96712 8.19499C2.96712 4.93164 5.61198 2.28678 8.87533 2.28678ZM8.54492 5.96842C8.64258 6.0026 8.75488 6.02051 8.87858 6.02051C9.00879 6.02051 9.12109 6.0026 9.22038 5.96842C9.31478 5.93587 9.39941 5.88542 9.47266 5.81868C9.54264 5.75684 9.59798 5.68197 9.63216 5.59733C9.6696 5.50944 9.6875 5.41016 9.6875 5.29785C9.6875 5.18392 9.6696 5.08138 9.63216 4.99349C9.59798 4.90885 9.54427 4.83398 9.47266 4.76888L9.4694 4.76562C9.39779 4.69889 9.31152 4.64844 9.21712 4.61426C9.11784 4.58008 9.00553 4.56217 8.87533 4.56217C8.75 4.56217 8.6377 4.58008 8.54329 4.61426C8.45052 4.64681 8.36914 4.69727 8.2959 4.764L8.29101 4.76888C8.2194 4.83398 8.16569 4.91048 8.13151 4.99349C8.09408 5.08138 8.07617 5.18229 8.07617 5.29785C8.07617 5.41016 8.09408 5.50944 8.13151 5.59733C8.16569 5.67708 8.21615 5.7487 8.28125 5.80892C8.2845 5.81217 8.28939 5.8138 8.29101 5.81706C8.36263 5.88379 8.44889 5.93424 8.54329 5.9668V5.96842H8.54492ZM7.50488 11.0091V11.8278H10.2734V11.0091H10.2116C10.1546 11.0091 10.0977 10.9945 10.0391 10.9619C9.99349 10.9375 9.95117 10.9049 9.91211 10.8626C9.87142 10.8236 9.83724 10.778 9.81283 10.7324C9.7819 10.6755 9.76562 10.6185 9.76562 10.5632V7.31283C9.76562 7.18262 9.75098 7.09147 9.71842 7.03776C9.7054 7.01823 9.68913 7.00846 9.66146 7.00846H7.47559V7.90365H7.56836C7.62533 7.90365 7.68555 7.92155 7.74251 7.9541C7.7832 7.97689 7.82064 8.00618 7.85644 8.04687C7.86133 8.05013 7.86458 8.05501 7.86947 8.0599C7.91016 8.10221 7.93945 8.14453 7.96224 8.18685C7.98991 8.24219 8.00456 8.2959 8.00456 8.35124V10.5632C8.00456 10.6152 7.99154 10.6657 7.96712 10.7178L7.95898 10.7324C7.9362 10.7747 7.9069 10.8171 7.86621 10.8594C7.82552 10.9017 7.7832 10.9375 7.74089 10.9619C7.68392 10.9945 7.62695 11.0091 7.56673 11.0091H7.50488Z" fill="#012D6D"/>
</g>
<defs>
<clipPath id="clip0_16_194">
<rect width="16.7952" height="20" fill="white"/>
</clipPath>
</defs>
</svg>
