<svg width="18" height="24" viewBox="0 0 18 24" fill="none" xmlns="http://www.w3.org/2000/svg">
<g clip-path="url(#clip0_15_191)">
<path fill-rule="evenodd" clip-rule="evenodd" d="M12.4844 12.6387C12.9135 12.0839 13.545 11.7218 14.2406 11.6317C14.9362 11.5416 15.6391 11.731 16.1953 12.1582C16.7506 12.587 17.113 13.2186 17.2031 13.9143C17.2932 14.61 17.1035 15.3131 16.6758 15.8691C14.8438 18.2441 13.0117 20.5977 11.1778 22.9766C10.752 23.5287 10.1244 23.8892 9.43303 23.9789C8.74161 24.0686 8.04285 23.8802 7.49025 23.4551C6.93947 23.0284 6.57998 22.401 6.49032 21.71C6.40065 21.0191 6.58812 20.3207 7.01174 19.7676C8.84572 17.3848 10.6485 15.0215 12.4805 12.6387H12.4844ZM0.867209 16.6211H7.84377L8.57815 15.666C9.45119 14.5254 10.3223 13.3906 11.4922 11.8711C11.7827 11.4949 12.1403 11.1758 12.5469 10.9297V8.31446C12.5664 6.72656 11.75 4.96875 10.8906 3.82227L10.6172 3.45508H11.084C11.343 3.45508 11.5914 3.35219 11.7745 3.16905C11.9577 2.98591 12.0606 2.73752 12.0606 2.47852V0.976565C12.058 0.718352 11.9543 0.471435 11.7717 0.288843C11.5891 0.106251 11.3422 0.00254618 11.084 2.03351e-06H1.57424C1.314 -0.000526056 1.06409 0.101821 0.878972 0.284742C0.693856 0.467662 0.588535 0.716331 0.585959 0.976565V2.46875C0.585959 2.72775 0.688847 2.97614 0.871988 3.15929C1.05513 3.34243 1.30352 3.44531 1.56252 3.44531H1.9219C1.82229 3.58203 1.72658 3.71485 1.62307 3.84766C0.632834 5.1875 -0.0995876 6.90235 0.0117405 8.64844V19.3906C0.00618345 19.7877 0.153766 20.1717 0.42385 20.4629C0.689475 20.7207 1.07619 20.8535 1.60744 20.8379H5.24611C5.26812 20.6745 5.30074 20.5127 5.34377 20.3535C5.37633 20.2304 5.41545 20.1092 5.46096 19.9902H1.82619C1.57155 20.0083 1.32012 19.9247 1.12697 19.7578C0.987854 19.6082 0.902626 19.4164 0.884787 19.2129C0.884787 19.1699 0.867209 16.623 0.867209 16.623V16.6211ZM5.72072 9.82813H6.83596C6.93645 9.82813 7.03283 9.86805 7.10389 9.93911C7.17494 10.0102 7.21486 10.1065 7.21486 10.207V11.4805H8.4883C8.58846 11.4805 8.68454 11.5201 8.75554 11.5908C8.82654 11.6614 8.86669 11.7573 8.86721 11.8574V12.9707C8.86721 13.0712 8.82729 13.1676 8.75623 13.2386C8.68517 13.3097 8.58879 13.3496 8.4883 13.3496H7.21096V14.623C7.21045 14.7225 7.17084 14.8178 7.10068 14.8883C7.03052 14.9589 6.93543 14.999 6.83596 15H5.72072C5.62057 15 5.52449 14.9604 5.45349 14.8897C5.38248 14.8191 5.34233 14.7232 5.34182 14.623V13.3496H4.06838C3.96823 13.3491 3.87235 13.3089 3.80171 13.2379C3.73108 13.1669 3.69143 13.0709 3.69143 12.9707V11.8574C3.69194 11.7576 3.73182 11.662 3.8024 11.5914C3.87298 11.5209 3.96856 11.481 4.06838 11.4805H5.34182V10.207C5.34182 10.1065 5.38174 10.0102 5.4528 9.93911C5.52386 9.86805 5.62023 9.82813 5.72072 9.82813ZM11.6231 8.20313H0.935568C0.935568 7.79883 0.910178 8.22071 0.953147 7.84375C1.15529 6.51501 1.66859 5.25284 2.45119 4.16016C2.6094 3.94922 2.77151 3.72852 2.93947 3.49219H9.60158C9.75002 3.69922 9.91018 3.91211 10.0684 4.125C10.7891 5.08203 11.4746 6.66406 11.6016 7.85742C11.6153 7.97461 11.6231 8.20703 11.6231 8.20703V8.20313ZM13.0469 19.5742L9.87307 17.1328L7.57619 20.1172C7.25351 20.5386 7.11078 21.0706 7.17922 21.5969C7.24766 22.1232 7.5217 22.601 7.94143 22.9258C8.36271 23.2453 8.89294 23.386 9.41721 23.3172C9.94147 23.2485 10.4175 22.9759 10.7422 22.5586L13.0469 19.5781V19.5742Z" fill="#012D6D"/>
</g>
<defs>
<clipPath id="clip0_15_191">
<rect width="17.2168" height="24" fill="white"/>
</clipPath>
</defs>
</svg>
