<svg width="21" height="20" viewBox="0 0 21 20" fill="none" xmlns="http://www.w3.org/2000/svg">
<g clip-path="url(#clip0_58_81)">
<path d="M12.1811 0.689624C12.1811 0.309233 12.5573 0 13.0223 0C13.4874 0 13.8636 0.309233 13.8636 0.689624V3.89699C13.8636 4.27734 13.4874 4.58658 13.0223 4.58658C12.5573 4.58658 12.1811 4.27734 12.1811 3.89699V0.689624ZM18.5388 11.6233C18.3349 11.4836 18.0714 11.5244 17.9297 11.7291L17.5412 12.2773C17.2788 12.1598 16.9436 12.0832 16.6592 12.0421L16.5373 11.3259C16.4912 11.0857 16.2791 10.9302 16.0355 10.9763L15.1377 11.136C14.9025 11.1832 14.7356 11.3975 14.7797 11.6389L14.8941 12.2931C14.6179 12.4087 14.344 12.5767 14.1107 12.7646L13.5017 12.3456C13.2982 12.2048 13.0418 12.249 12.901 12.4528L12.3834 13.1909C12.2428 13.3945 12.2848 13.6581 12.4906 13.7989L13.0377 14.1874C12.9221 14.4479 12.8433 14.7869 12.8024 15.0694L12.0874 15.1913C11.8449 15.2374 11.6925 15.4473 11.7366 15.6931L11.8963 16.5909C11.9435 16.825 12.1587 16.995 12.3992 16.9489L13.0535 16.8345C13.1741 17.1211 13.339 17.3783 13.5248 17.6262L13.1059 18.2269C12.9652 18.4305 13.0104 18.6868 13.2129 18.8273L13.9586 19.3524C14.1568 19.4921 14.4301 19.4332 14.5748 19.2464L14.9624 18.6909C15.2291 18.8085 15.5568 18.8831 15.8453 18.927L15.9672 19.6421C16.0113 19.8837 16.2266 20.0381 16.4691 19.9918L17.3668 19.8323C17.601 19.7851 17.769 19.5707 17.724 19.3303L17.6104 18.6762C17.8992 18.5543 18.1513 18.3905 18.4011 18.2036L19.0028 18.6226C19.2075 18.7643 19.4691 18.7224 19.6107 18.5155L20.1359 17.7701C20.2733 17.5715 20.2167 17.2996 20.0298 17.1536L19.4743 16.7736C19.5899 16.5132 19.6685 16.1741 19.7096 15.8914L20.4247 15.7697C20.6649 15.7236 20.8215 15.5126 20.7752 15.2679L20.6157 14.3701C20.5685 14.136 20.3531 13.9658 20.1128 14.0119L19.4585 14.1265C19.3325 13.8419 19.1825 13.5856 18.987 13.3431L19.4061 12.7341C19.5468 12.5303 19.5016 12.2743 19.2989 12.1323L18.5607 11.6158L18.5388 11.6233ZM16.2571 13.5656C17.3166 13.5656 18.1755 14.4246 18.1755 15.484C18.1755 16.5437 17.3166 17.4024 16.2571 17.4024C15.1976 17.4024 14.3387 16.5437 14.3387 15.484C14.3387 14.4246 15.1976 13.5656 16.2571 13.5656ZM10.8753 19.0443H1.74206C1.26437 19.0443 0.8291 18.8482 0.513047 18.5326C0.196142 18.2152 0 17.78 0 17.3023V3.49505C0 2.53816 0.785138 1.75302 1.74206 1.75302H3.34904V3.89699C3.34904 4.49301 3.6262 5.01966 4.07357 5.38621C4.45153 5.69613 4.95426 5.88829 5.49187 5.88829C6.02907 5.88829 6.53245 5.69613 6.91041 5.38621C7.35778 5.01966 7.63494 4.49301 7.63494 3.89699V1.75302H10.8795V3.89699C10.8795 4.49301 11.1566 5.01966 11.6039 5.38621C11.9819 5.69613 12.4846 5.88829 13.0223 5.88829C13.5595 5.88829 14.0629 5.69613 14.4408 5.38621C14.8882 5.01966 15.1654 4.49301 15.1654 3.89699V1.75302H16.8428C17.7997 1.75302 18.5851 2.53816 18.5851 3.49529V9.4657C18.3421 9.37159 18.0936 9.29238 17.841 9.22852V6.79687H0.744099V16.9302C0.744099 17.6833 1.36058 18.3002 2.11409 18.3002H10.4501C10.5752 18.5574 10.7172 18.8059 10.8753 19.0443ZM7.58863 13.2145H10.2155C9.95021 13.9205 9.80436 14.6852 9.80436 15.484C9.80436 15.8325 9.83249 16.1745 9.88563 16.5081H7.58863C7.41489 16.5081 7.27059 16.3652 7.27059 16.1903V13.5322C7.27059 13.3574 7.4138 13.2145 7.58863 13.2145ZM12.6226 8.21696H15.7001C15.8752 8.21696 16.0182 8.36122 16.0182 8.53476V9.03701C14.6214 9.08754 13.3377 9.58232 12.3046 10.3839V8.53476C12.3046 8.35993 12.4477 8.21696 12.6226 8.21696ZM7.58863 8.21696H10.666C10.841 8.21696 10.984 8.36122 10.984 8.53476V11.1928C10.984 11.3663 10.8397 11.5106 10.666 11.5106H7.58863C7.41489 11.5106 7.27059 11.3676 7.27059 11.1928V8.53476C7.27059 8.35993 7.4138 8.21696 7.58863 8.21696ZM2.55444 8.21696H5.63179C5.80682 8.21696 5.94979 8.36122 5.94979 8.53476V11.1928C5.94979 11.3663 5.80548 11.5106 5.63179 11.5106H2.55444C2.3807 11.5106 2.2364 11.3676 2.2364 11.1928V8.53476C2.2364 8.35993 2.37961 8.21696 2.55444 8.21696ZM2.55444 13.2145H5.63179C5.80682 13.2145 5.94979 13.3587 5.94979 13.5322V16.1903C5.94979 16.3638 5.80548 16.5081 5.63179 16.5081H2.55444C2.3807 16.5081 2.2364 16.3652 2.2364 16.1903V13.5322C2.2364 13.3574 2.37961 13.2145 2.55444 13.2145ZM4.65071 0.689624C4.65071 0.309233 5.02696 0 5.49187 0C5.95702 0 6.33327 0.309233 6.33327 0.689624V3.89699C6.33327 4.27734 5.95702 4.58658 5.49187 4.58658C5.02696 4.58658 4.65071 4.27734 4.65071 3.89699V0.689624Z" fill="#012D6D"/>
</g>
<defs>
<clipPath id="clip0_58_81">
<rect width="20.7833" height="20" fill="white"/>
</clipPath>
</defs>
</svg>
