<svg width="24" height="22" viewBox="0 0 24 22" fill="none" xmlns="http://www.w3.org/2000/svg">
<g clip-path="url(#clip0_17_210)">
<path fill-rule="evenodd" clip-rule="evenodd" d="M3.60086 19.5616C3.60086 20.2299 3.74159 20.7179 4.03619 21.0108C4.32141 21.2942 4.77926 21.4068 5.42101 21.3355L5.45478 21.3336H19.4718C19.4718 14.805 19.4568 8.97458 19.4568 2.44028H19.4587C19.4587 1.77202 19.316 1.28397 19.0233 0.991134C18.7381 0.707686 18.2802 0.595058 17.6385 0.666389L17.6047 0.668267H3.58772C3.58585 7.18755 3.60086 13.0311 3.60086 19.5616ZM9.55293 8.1355V2.93021H12.2306C12.7279 2.93021 13.1069 2.97339 13.3696 3.05786C13.6323 3.14233 13.8443 3.30188 14.0057 3.53089C14.1671 3.76178 14.2459 4.04523 14.2459 4.3756C14.2459 4.66468 14.184 4.91247 14.0601 5.1227C13.8124 5.54506 13.5141 5.71212 13.0525 5.81724L14.0902 7.54045L14.9852 5.93926H16.7359L15.1184 8.46025L16.8879 11.1427H15.079L14.0583 9.47014L13.03 11.1427H11.2361L13.03 8.43021C12.8067 8.07356 11.8947 6.2809 11.6996 6.14386C11.5851 6.06315 11.4519 6.02373 11.3055 6.02373H11.1629V8.13175H9.55293V8.1355ZM11.1667 5.04574H11.8459C11.9191 5.04574 12.0617 5.02134 12.2719 4.97441C12.3788 4.95376 12.4652 4.89932 12.5327 4.8111C12.6003 4.72287 12.634 4.62151 12.634 4.50888C12.634 4.33994 12.5815 4.21042 12.4745 4.12032C12.3676 4.03021 12.1687 3.98516 11.8741 3.98516H11.1667V5.04574ZM20.0835 18.8032H22.2583C22.4947 18.8032 22.2977 18.8051 22.3709 18.8032C22.6899 18.8014 22.8344 18.8014 22.9657 18.9722C23.0689 19.1055 23.0614 19.2237 23.052 19.4377C23.0483 19.5072 23.0445 19.5954 23.0445 19.7287C23.0445 20.808 22.673 21.4219 22.0444 21.7428C21.4908 22.0244 20.7534 22.0451 19.9071 21.9456H5.46604C4.64041 22.0338 4.02681 21.8611 3.60649 21.4444C3.1918 21.0333 2.99102 20.3988 2.99102 19.5616H2.98914C2.98914 13.8777 2.97413 8.88823 2.97413 3.19677H0.799335C0.562904 3.19677 0.75993 3.19489 0.686749 3.19677C0.367754 3.19864 0.223268 3.19864 0.0919171 3.02782C-0.0112871 2.89455 -0.00378135 2.77629 0.00560085 2.56229C0.00935373 2.49284 0.0131066 2.40461 0.0131066 2.27134C0.0131066 1.19199 0.384642 0.578164 1.01325 0.257174C1.5668 -0.0243956 2.30424 -0.0450441 3.15051 0.054444H17.5935C18.4191 -0.0337813 19.0346 0.138915 19.453 0.555639C19.8677 0.966731 20.0685 1.6012 20.0685 2.4384H20.0704C20.0685 8.10922 20.0835 13.1174 20.0835 18.8032ZM2.97413 2.58482V0.651372C2.28548 0.576287 1.70003 0.596936 1.29096 0.80342C0.874393 1.01554 0.626702 1.46042 0.626702 2.27134C0.626702 2.38772 0.621073 2.50035 0.61732 2.59233C0.613567 2.66178 0.540386 2.60735 0.576039 2.65427C0.626702 2.71997 0.574162 2.5867 0.684872 2.5867C0.825605 2.5867 0.643591 2.58482 0.799335 2.58482H2.97413ZM20.0835 19.4152V21.3486C20.7722 21.4237 21.3576 21.4031 21.7667 21.1966C22.1832 20.9845 22.4309 20.5396 22.4309 19.7287C22.4309 19.6123 22.4366 19.4997 22.4403 19.4077C22.4441 19.3382 22.5173 19.3927 22.4816 19.3457C22.4309 19.28 22.4835 19.4133 22.3728 19.4133C22.232 19.4133 22.414 19.4152 22.2583 19.4152H20.0835ZM5.88449 11.4355C5.71373 11.4355 5.57675 11.2985 5.57675 11.1295C5.57675 10.9606 5.71561 10.8236 5.88449 10.8236H8.89993C9.07068 10.8236 9.20766 10.9606 9.20766 11.1295C9.20766 11.2985 9.06881 11.4355 8.89993 11.4355H5.88449ZM5.88449 14.5759C5.71561 14.5759 5.57863 14.4389 5.57863 14.27C5.57863 14.101 5.71561 13.964 5.88449 13.964H14.5611C14.73 13.964 14.867 14.101 14.867 14.27C14.867 14.4389 14.73 14.5759 14.5611 14.5759H5.88449ZM5.88449 17.7183C5.71561 17.7183 5.57863 17.5794 5.57863 17.4104C5.57863 17.2415 5.71561 17.1026 5.88449 17.1026H10.3748C10.5437 17.1026 10.6807 17.2415 10.6807 17.4104C10.6807 17.5812 10.5437 17.7183 10.3748 17.7183H5.88449Z" fill="white"/>
</g>
<defs>
<clipPath id="clip0_17_210">
<rect width="23.0577" height="22" fill="white"/>
</clipPath>
</defs>
</svg>
